<svg width="56" height="68" viewBox="0 0 56 68" fill="none" xmlns="http://www.w3.org/2000/svg">
<g clip-path="url(#clip0_73_872)">
<path d="M9.78875 30.9054C10.1037 31.2729 10.2641 31.7481 10.2362 32.2313C10.2082 32.7254 9.98906 33.1892 9.62505 33.5245L9.57049 33.5681C9.20332 33.888 8.72513 34.0506 8.2391 34.021C7.74943 33.9881 7.29078 33.7695 6.95682 33.4099L6.90226 33.3499C4.73831 30.9598 2.9766 28.2343 1.68585 25.2797C0.54239 22.6409 -0.0321125 19.7907 -0.000205004 16.9149C0.0627061 14.0253 0.731936 11.181 1.96413 8.56649C3.35684 5.64078 5.21634 2.96118 7.46974 0.632743C7.6417 0.451003 7.8478 0.304933 8.07625 0.202881C8.30469 0.10083 8.55101 0.0447967 8.80112 0.0379848C9.05007 0.0339169 9.29727 0.0801482 9.52792 0.173908C9.75857 0.267668 9.96792 0.407027 10.1434 0.583634L10.1762 0.616373C10.5103 0.963854 10.7046 1.42234 10.7218 1.90411C10.7306 2.15162 10.6898 2.39839 10.6017 2.62986C10.5136 2.86133 10.38 3.07282 10.2089 3.25186H10.1816C8.25915 5.25788 6.66452 7.55408 5.45629 10.0561C4.40766 12.2103 3.83097 14.5636 3.76478 16.9586C3.74841 19.3603 4.23928 21.7385 5.20529 23.9374C6.31242 26.4312 7.80583 28.7349 9.63051 30.7635C9.67048 30.7878 9.70715 30.8171 9.73964 30.8508L9.78875 30.9054ZM7.44791 61.1125H13.9957L25.1761 21.9022C24.9079 21.74 24.6525 21.5576 24.4121 21.3565L24.0084 21.0127C22.9559 19.9436 22.3677 18.5025 22.3714 17.0022C22.371 16.2641 22.5175 15.5333 22.8025 14.8524C23.0819 14.1641 23.4913 13.536 24.0084 13.0026C24.5352 12.4794 25.1603 12.0655 25.8476 11.7845C26.5349 11.5036 27.2709 11.3613 28.0134 11.3657C28.7619 11.3619 29.5038 11.5066 30.196 11.7913C30.8857 12.0756 31.5138 12.4906 32.0458 13.0135C32.569 13.5404 32.9829 14.1654 33.2639 14.8527C33.5448 15.5401 33.6871 16.2761 33.6827 17.0186C33.6817 17.437 33.636 17.854 33.5463 18.2627C33.4557 18.6615 33.3221 19.0494 33.148 19.4195C32.7322 20.3312 32.0733 21.1109 31.2437 21.673L43.5808 61.1125H47.1766V67.0383H7.44791V61.1125ZM20.4071 61.1125H40.5961L38.1625 53.4189L20.4071 61.1125ZM25.8636 29.9123L31.8221 33.1862L28.4936 22.5624C28.3263 22.5624 28.1444 22.5624 27.948 22.5624L25.869 29.9232L25.8636 29.9123ZM33.339 38.0261L23.4245 44.9886L36.9403 49.5011L33.3444 38.0425L33.339 38.0261ZM17.5151 59.2573L34.7577 51.7765L20.9527 47.1821L17.5097 59.2682L17.5151 59.2573ZM22.3714 42.244L31.1509 36.0836L25.0669 32.7388L22.3387 42.2331L22.3714 42.244ZM17.1004 24.6086C17.3861 24.9901 17.515 25.4665 17.4606 25.94C17.4385 26.184 17.3672 26.4211 17.2509 26.6368C17.1346 26.8525 16.9758 27.0424 16.784 27.195L16.7076 27.255C16.328 27.5364 15.8574 27.6667 15.3871 27.6206C15.143 27.5963 14.9062 27.5235 14.6907 27.4064C14.4751 27.2892 14.2852 27.1301 14.1321 26.9385L14.0994 26.9003C12.9073 25.4547 11.9465 23.833 11.2511 22.0931C10.6096 20.4603 10.273 18.7237 10.258 16.9695C10.2526 15.2328 10.5766 13.5109 11.2129 11.8949C11.9057 10.1531 12.8708 8.53231 14.0721 7.09323C14.3854 6.70395 14.8405 6.45507 15.3373 6.40135C15.8341 6.34762 16.3319 6.49346 16.7212 6.80677C17.1105 7.12007 17.3594 7.57519 17.4131 8.072C17.4668 8.56881 17.321 9.06661 17.0077 9.45589C16.0834 10.5678 15.3361 11.8156 14.7924 13.1554C13.7919 15.5846 13.7919 18.3107 14.7924 20.7399C15.3452 22.1185 16.1051 23.4047 17.0459 24.554L17.1004 24.6359V24.6086ZM49.0537 33.4044C48.7197 33.7586 48.2628 33.9714 47.7769 33.9992C47.5294 34.0144 47.2813 33.9802 47.0472 33.8987C46.813 33.8172 46.5973 33.69 46.4127 33.5245L46.38 33.4917C46.0262 33.1598 45.8133 32.7047 45.7852 32.2204C45.7687 31.972 45.8022 31.7227 45.8837 31.4875C45.9653 31.2522 46.0932 31.0357 46.26 30.8508L46.2927 30.8181C48.1509 28.7714 49.6706 26.4413 50.7943 23.9156C51.7611 21.7092 52.252 19.3238 52.2348 16.9149C52.1753 14.5163 51.6061 12.1578 50.5651 9.99609C49.3455 7.49161 47.7358 5.19676 45.7962 3.19729L45.7525 3.15364C45.4348 2.79112 45.2687 2.32026 45.2887 1.83863C45.3009 1.35416 45.4958 0.892227 45.8343 0.545439L45.878 0.501787C46.056 0.334615 46.2652 0.204218 46.4936 0.118074C46.7221 0.0319303 46.9653 -0.00826637 47.2094 -0.000210693C47.7054 0.0157869 48.1755 0.225359 48.5189 0.583634L48.5571 0.62183C50.7948 2.94347 52.6395 5.61388 54.0191 8.52829C55.2513 11.1389 55.9206 13.9796 55.9834 16.8658C56.0167 19.7505 55.4422 22.6099 54.2974 25.2579C53.0284 28.1722 51.2943 30.8609 49.1628 33.2189C49.1371 33.2844 49.0981 33.3439 49.0482 33.3935L49.0537 33.4044ZM40.8198 27.0531C40.5093 27.3607 40.1032 27.5531 39.6685 27.5987C39.1731 27.6516 38.6769 27.5064 38.288 27.195C37.9016 26.8817 37.6544 26.4285 37.6003 25.934C37.5461 25.4394 37.6894 24.9435 37.9988 24.554C38.9323 23.4255 39.6885 22.1615 40.2414 20.8054C41.2439 18.3577 41.2439 15.614 40.2414 13.1663V13.139C39.6956 11.8103 38.9484 10.5735 38.0261 9.47226L37.977 9.41224C37.7115 9.03245 37.595 8.56829 37.6496 8.10814C37.6743 7.86339 37.7473 7.62597 37.8644 7.40961C37.9815 7.19326 38.1403 7.00227 38.3317 6.84769L38.3699 6.82041C38.7528 6.51869 39.2381 6.37779 39.7231 6.42754C40.2059 6.47797 40.6492 6.71726 40.9562 7.09323L40.989 7.13143C42.1796 8.56707 43.1354 10.1822 43.8209 11.9168C44.4572 13.5327 44.7812 15.2546 44.7758 16.9913C44.7608 18.7402 44.4242 20.4715 43.7827 22.0986C43.0882 23.858 42.1235 25.4982 40.9235 26.9603C40.8935 26.9941 40.8607 27.0251 40.8253 27.0531H40.8198Z" fill="#049FF6"/>
</g>
<defs>
<clipPath id="clip0_73_872">
<rect width="56" height="67.0494" fill="white"/>
</clipPath>
</defs>
</svg>
