<svg width="69" height="49" viewBox="0 0 69 49" fill="none" xmlns="http://www.w3.org/2000/svg">
<path fill-rule="evenodd" clip-rule="evenodd" d="M30.3195 41.5494H44.5816C44.6175 44.0178 45.6328 46.224 48.3904 47.967H26.5151C28.7163 46.3684 30.3296 44.4255 30.3195 41.5494ZM23.0887 17.0989V46.9333C23.0887 47.5015 22.6232 47.967 22.0555 47.967H1.03376C0.465503 47.967 0 47.5015 0 46.9333V17.0989C0 16.5312 0.465503 16.0657 1.03376 16.0657H22.0527C22.6232 16.0657 23.0887 16.5307 23.0887 17.0989ZM11.5432 44.5305C12.1968 44.5305 12.728 45.0611 12.728 45.7147C12.728 46.3684 12.1968 46.8996 11.5432 46.8996C10.8896 46.8996 10.3584 46.3684 10.3584 45.7147C10.3612 45.0611 10.8896 44.5305 11.5432 44.5305ZM21.6872 17.9098V43.4799H1.547V17.9098H21.6872ZM57.5786 24.8278H66.5304C67.2115 24.8278 67.8331 25.1057 68.2762 25.5521C68.7254 26.0019 68.9994 26.6201 68.9994 27.2979V46.2061C68.9994 46.8878 68.722 47.5094 68.2762 47.9519C67.8258 48.4022 67.2082 48.6757 66.5304 48.6757H57.5786C56.8969 48.6757 56.2753 48.3983 55.8328 47.9519C55.383 47.5026 55.109 46.8844 55.109 46.2061V27.2945C55.109 26.6128 55.3864 25.9912 55.8328 25.5482C56.282 25.099 56.8969 24.8278 57.5786 24.8278ZM55.9597 45.2453H68.1453V27.5214H55.9597V45.2453ZM62.0511 46.018C62.6098 46.018 63.0664 46.4678 63.0664 47.0332C63.0664 47.5925 62.6166 48.049 62.0511 48.049C61.4924 48.049 61.0353 47.5992 61.0353 47.0332C61.0353 46.4751 61.4851 46.018 62.0511 46.018ZM9.82666 0H64.5252C65.3911 0 66.0975 0.705835 66.0975 1.57227V19.3894H63.8649V3.51963C63.8649 2.75652 63.2416 2.12761 62.4728 2.12761H11.8734C11.1103 2.12761 10.4814 2.7509 10.4814 3.51963V12.604H8.25439V1.57227C8.25439 0.705835 8.96079 0 9.82666 0ZM26.4084 33.9256H51.9454V39.3796H26.4084V33.9256Z" fill="#049FF6"/>
</svg>
