<svg width="79" height="59" viewBox="0 0 79 59" fill="none" xmlns="http://www.w3.org/2000/svg">
<g clip-path="url(#clip0_73_869)">
<path fill-rule="evenodd" clip-rule="evenodd" d="M30.1715 15.1387C30.0879 15.5116 30.1265 15.9424 30.2615 16.3796C30.3193 16.5724 30.3965 16.7589 30.4865 16.9453C30.5765 17.1382 30.6858 17.3246 30.8144 17.5046C30.9365 17.6846 31.0715 17.8582 31.2194 18.0125C31.3608 18.1668 31.5151 18.3083 31.6694 18.424L31.6759 18.4304C32.0552 18.7261 32.4795 18.9254 32.9102 18.964C33.4696 19.0155 34.2925 18.5654 34.7811 18.2375L34.8904 18.1668L34.9032 18.1604C35.0961 18.0318 35.289 17.9161 35.4754 17.7939C35.5847 17.7296 35.7133 17.7104 35.829 17.7361C35.9447 17.7618 36.0476 17.8325 36.1119 17.9289C36.1312 17.9547 36.144 17.974 36.1505 17.9997L36.3369 18.334L36.3433 18.3404C36.5876 18.784 36.8255 19.2148 37.0827 19.6391C37.327 20.0505 37.5713 20.4298 37.822 20.7642L37.8285 20.7706L37.8542 20.8092C37.8799 20.8477 37.9185 20.8992 37.9635 20.957L37.9699 20.9635C38.1242 21.1692 38.2785 21.3878 38.4392 21.5806C38.5935 21.7671 38.7542 21.9278 38.9021 22.0371C39.005 22.1078 39.1143 22.1464 39.2171 22.1207C39.3328 22.095 39.4614 21.9921 39.6093 21.7928C39.6414 21.7414 39.6736 21.6899 39.7057 21.6385L39.8022 21.4906L39.8086 21.4842C39.905 21.3363 40.0015 21.1885 40.0722 21.0342C40.1236 20.9249 40.1622 20.8092 40.1751 20.687C40.1172 20.6741 40.0465 20.6613 39.9757 20.6549H39.9693C39.455 20.5906 38.9535 20.5327 38.7864 19.5426V19.5362L38.7671 19.4141C38.7478 19.2855 38.7349 19.189 38.7221 19.1312C38.7157 19.0926 38.7092 19.0605 38.7028 19.0476V19.054C38.7028 19.0605 38.7028 19.0605 38.7028 19.0605C38.6578 19.0347 38.6064 19.009 38.5421 18.9769L38.4842 18.9512H38.4778C38.3106 18.8676 38.1756 18.7519 38.0728 18.604C37.957 18.4497 37.8799 18.2697 37.8285 18.0768C37.777 17.8839 37.7449 17.6782 37.732 17.4725C37.7192 17.2346 37.7256 17.0032 37.7513 16.8039V16.7974C37.7642 16.7139 37.7899 16.6431 37.8349 16.5789L37.8413 16.566C37.8863 16.5081 37.9506 16.4567 38.0213 16.4246C38.0278 16.4246 38.0342 16.4181 38.0406 16.4181C39.4743 15.7752 40.6894 15.4473 41.7373 15.2738C42.6117 15.1323 43.3767 15.1066 44.0646 15.1002C42.6438 14.1615 41.1908 12.6636 39.9629 10.9856C38.7028 9.26904 37.687 7.36605 37.192 5.70093C36.8641 6.66528 36.3948 7.82894 35.5976 9.10189C34.6718 10.5548 30.4093 14.0972 30.1715 15.1387ZM14.7096 37.3253H64.2904V49.4826H14.7096V37.3253ZM34.1703 45.5674H31.9137L31.5923 46.6281H29.5607L31.9845 40.1863H34.1639L36.5812 46.6281H34.4982L34.1703 45.5674ZM33.7524 44.1723L33.0517 41.8578L32.3445 44.1723H33.7524ZM37.102 40.1798H40.0593C40.6444 40.1798 41.1137 40.257 41.4737 40.4177C41.8337 40.5784 42.1295 40.8034 42.3674 41.0992C42.5988 41.3949 42.7724 41.7421 42.8752 42.1343C42.9845 42.5264 43.036 42.9443 43.036 43.3815C43.036 44.0694 42.9588 44.603 42.7981 44.9823C42.6438 45.3616 42.4252 45.6766 42.1423 45.9338C41.8659 46.191 41.5637 46.3581 41.2423 46.4481C40.8051 46.5639 40.4129 46.6217 40.0529 46.6217H37.0955V40.1798H37.102ZM39.0885 41.6392V45.1559H39.5772C39.995 45.1559 40.2908 45.1109 40.4708 45.0209C40.6444 44.9309 40.7858 44.7702 40.8822 44.5387C40.9851 44.3073 41.0301 43.9344 41.0301 43.4201C41.0301 42.7386 40.9208 42.2693 40.6958 42.0185C40.4708 41.7678 40.1043 41.6392 39.5836 41.6392H39.0885ZM43.5953 44.4937L45.4854 44.378C45.524 44.6866 45.6076 44.918 45.7362 45.0788C45.9419 45.3359 46.2312 45.4709 46.6169 45.4709C46.8998 45.4709 47.1184 45.4066 47.2727 45.2716C47.427 45.1366 47.5042 44.9823 47.5042 44.8087C47.5042 44.6416 47.4334 44.4937 47.2856 44.3587C47.1377 44.2237 46.8034 44.1015 46.2698 43.9858C45.3954 43.7929 44.7782 43.5294 44.4054 43.2015C44.0325 42.88 43.8396 42.4621 43.8396 41.9607C43.8396 41.6328 43.936 41.3178 44.1289 41.022C44.3218 40.7263 44.6111 40.4949 44.9968 40.3277C45.3826 40.1605 45.9098 40.077 46.5784 40.077C47.4013 40.077 48.0313 40.2313 48.4621 40.5399C48.8928 40.8484 49.15 41.3306 49.2336 42.0057L47.3627 42.115C47.3113 41.8257 47.2084 41.6071 47.0477 41.4785C46.887 41.3435 46.6684 41.2792 46.3855 41.2792C46.1541 41.2792 45.9805 41.3306 45.8647 41.4271C45.749 41.5235 45.6912 41.6456 45.6912 41.7871C45.6912 41.8899 45.7362 41.98 45.8326 42.0635C45.9226 42.1471 46.1476 42.2243 46.4948 42.3014C47.3627 42.4879 47.9863 42.6807 48.3592 42.8736C48.7385 43.0665 49.0085 43.3043 49.1821 43.5872C49.3557 43.8701 49.4393 44.1915 49.4393 44.5387C49.4393 44.9502 49.3236 45.3295 49.0986 45.6831C48.8671 46.0302 48.5521 46.2938 48.1406 46.4739C47.7292 46.6539 47.2148 46.7439 46.5912 46.7439C45.4983 46.7439 44.7397 46.5317 44.3153 46.1138C43.891 45.6831 43.6532 45.143 43.5953 44.4937ZM14.7096 25.8817H42.3481V27.1996H14.7096V25.8817ZM14.7096 29.7005H64.2904V31.0185H14.7096V29.7005ZM14.7096 33.5129H64.2904V34.8309H14.7096V33.5129ZM1.63298 54.9537H9.72713C9.12923 54.7994 8.6792 54.2465 8.6792 53.6036V14.2773C8.6792 13.5122 9.30925 12.8822 10.0743 12.8822H26.0697L26.5326 15.6402H11.6366V52.6393H67.2027V15.6402H52.8017L53.5089 12.8822H68.5592C69.3307 12.8822 69.9543 13.5122 69.9543 14.2773V53.5972C69.9543 54.2466 69.5107 54.793 68.9064 54.9473H77.367C78.2671 54.9473 79 55.6802 79 56.5803C79 57.4804 78.2671 58.2133 77.367 58.2133H1.63298C0.73291 58.2133 0 57.4804 0 56.5803C0 55.6867 0.73291 54.9537 1.63298 54.9537ZM37.2048 55.5645H41.7952C42.2259 55.5645 42.5795 55.9181 42.5795 56.3488C42.5795 56.7796 42.2259 57.1332 41.7952 57.1332H37.2048C36.7741 57.1332 36.4205 56.7796 36.4205 56.3488C36.4205 55.9117 36.7741 55.5645 37.2048 55.5645ZM42.4509 1.91423C42.2131 1.77922 42.1359 1.47706 42.2709 1.23918C42.4059 1.00131 42.7081 0.924159 42.946 1.05917C44.2575 1.81779 45.9355 3.43148 47.3499 5.28947C48.6099 6.94173 49.6643 8.80615 50.0822 10.4456C50.1465 10.7091 49.9922 10.9792 49.7222 11.0499C49.4586 11.1142 49.1886 10.9599 49.1178 10.6899C48.7321 9.17904 47.742 7.4432 46.5591 5.88737C45.2283 4.13225 43.6596 2.61499 42.4509 1.91423ZM51.0273 0.827723C50.8408 0.628423 50.8537 0.313401 51.0594 0.126959C51.2587 -0.059483 51.5737 -0.0466249 51.7602 0.159104C52.1331 0.564133 52.4995 0.988449 52.8595 1.43848C53.2067 1.87566 53.541 2.32569 53.8625 2.78858C54.0168 3.01359 53.9589 3.32219 53.7339 3.47648C53.5089 3.63078 53.2003 3.57292 53.046 3.3479C52.731 2.9043 52.4095 2.46713 52.0752 2.04924C51.7345 1.62492 51.3809 1.21347 51.0273 0.827723ZM46.8548 1.30347C46.6491 1.12346 46.6298 0.808436 46.8098 0.609136C46.9898 0.403407 47.3049 0.38412 47.5042 0.564133C48.3914 1.34847 49.3171 2.3514 50.1658 3.44434C50.963 4.47298 51.683 5.58521 52.2295 6.67171C52.3516 6.91602 52.2552 7.21175 52.0109 7.3339C51.7666 7.45606 51.4709 7.35962 51.3487 7.11532C50.8344 6.0931 50.1465 5.03231 49.3879 4.04867C48.5778 3.00074 47.6906 2.04924 46.8548 1.30347ZM39.5386 8.72258C40.0143 8.5297 40.4901 8.44613 40.953 8.49756C42.2581 8.639 43.2031 9.66764 43.0938 11.0049C43.0553 11.5128 42.8752 12.0657 42.5538 12.6764C42.8174 12.9336 43.1003 13.1908 43.4089 13.4479C43.846 13.8272 44.2832 14.1551 44.7268 14.4316C45.1254 14.6823 45.5304 14.8816 45.929 15.0295C45.9676 15.023 46.0062 15.0166 46.0383 15.0037C46.0769 14.9909 46.1091 14.9716 46.1412 14.9523C46.1669 14.933 46.1991 14.9137 46.2248 14.8816C46.2891 14.753 46.3341 14.5987 46.3534 14.4251C46.3726 14.2323 46.3726 14.0201 46.3405 13.7887C46.2505 13.0879 45.9483 12.2393 45.5047 11.3392C45.0161 10.3491 44.3539 9.30119 43.6146 8.29826C42.8881 7.31462 42.0909 6.37598 41.3001 5.59807C40.5479 4.8523 39.8086 4.24797 39.1593 3.87508H39.1528C38.915 3.74008 38.6899 3.63721 38.4906 3.57935L38.4778 3.57292C38.3042 3.52149 38.1499 3.5022 38.0213 3.52149C37.9892 3.52792 37.9699 3.52792 37.9506 3.53435L37.9442 3.54078C37.9313 3.56649 37.912 3.59221 37.8992 3.61792C37.8927 3.63078 37.8799 3.65007 37.867 3.67578L37.8477 3.71436V3.72722V3.73365C37.7834 4.11939 37.8477 4.63371 38.002 5.23161C38.1756 5.86808 38.4585 6.59457 38.8314 7.35962C39.0693 7.84823 39.3071 8.29826 39.5386 8.72258ZM44.4504 16.0517H44.4375C42.9974 16.0645 41.1973 16.0838 38.6449 17.1832C38.6449 17.2796 38.6449 17.3825 38.6514 17.4853C38.6578 17.6075 38.6771 17.7232 38.7092 17.8261C38.7349 17.9032 38.7607 17.9675 38.7928 18.019C38.8185 18.0575 38.8442 18.0897 38.8764 18.1025L38.9278 18.1283H38.9342L38.9471 18.1347C39.2236 18.2697 39.365 18.3404 39.5 18.5526V18.559C39.6029 18.7261 39.635 18.9062 39.6864 19.234L39.6929 19.2662V19.2726L39.7122 19.3948V19.4012C39.7636 19.6841 39.9179 19.7034 40.0722 19.7226C40.8437 19.8127 41.1201 20.1727 41.1137 20.6484C41.1137 21.0727 40.863 21.5678 40.5737 22.0114C40.5415 22.0628 40.5094 22.1142 40.4836 22.1528C40.4579 22.1978 40.4258 22.2428 40.4001 22.2814L40.3872 22.3007C40.3808 22.3071 40.3808 22.3135 40.3744 22.32C40.04 22.7957 39.6993 23.0336 39.3521 23.0979C38.9985 23.1622 38.6642 23.0465 38.3363 22.8214C37.9249 22.5321 37.5649 22.0564 37.2306 21.6064L37.1791 21.5356L37.1277 21.4649L37.0377 21.3428L37.0312 21.3299C36.7677 20.9763 36.5105 20.5713 36.2598 20.147C36.0219 19.7484 35.7776 19.3112 35.5269 18.8612L35.5204 18.8676C35.469 18.8997 35.4176 18.9319 35.3854 18.9576L35.2054 19.0797L35.1926 19.0862C34.4468 19.5748 33.791 20.0184 32.7881 19.9155C32.1773 19.8577 31.5923 19.5812 31.078 19.1762C30.8787 19.0219 30.6922 18.8483 30.5186 18.6554C30.3386 18.4626 30.1779 18.2568 30.0236 18.0382C29.8757 17.8197 29.7472 17.5946 29.6314 17.3632C29.5221 17.1318 29.4257 16.8939 29.3486 16.656V16.6496C29.1685 16.0517 29.1171 15.4409 29.2457 14.9073C29.7793 12.6379 34.7811 10.2141 36.5684 4.51156V4.50513C36.6519 4.23511 36.7291 3.99081 36.8127 3.75936C36.8898 3.53435 36.9734 3.33505 37.0634 3.16789L37.0698 3.16146C37.1148 3.07788 37.1534 3.01359 37.1984 2.95573C37.2498 2.89144 37.3077 2.83358 37.3784 2.78215C37.4491 2.73072 37.5263 2.69214 37.6099 2.66C37.6934 2.63428 37.7835 2.61499 37.8863 2.60214C38.1435 2.56999 38.4199 2.59571 38.7157 2.67928C39.005 2.76286 39.3071 2.89787 39.6222 3.07788L39.6286 3.08431C40.3422 3.48934 41.133 4.13867 41.9366 4.92302C42.766 5.74593 43.6082 6.72315 44.3668 7.75822C45.1447 8.81901 45.8455 9.93123 46.3662 10.992C46.8484 11.9692 47.1698 12.895 47.2727 13.6922C47.3177 14.0265 47.3177 14.3415 47.2791 14.6309C47.2406 14.9137 47.157 15.1709 47.022 15.3959L47.0155 15.4023C46.6362 16.071 45.4276 16.0581 44.6947 16.0517C44.6047 16.0517 44.5211 16.0517 44.4504 16.0517Z" fill="#049FF6"/>
</g>
<defs>
<clipPath id="clip0_73_869">
<rect width="79" height="58.2149" fill="white"/>
</clipPath>
</defs>
</svg>
