<svg width="83" height="27" viewBox="0 0 83 27" fill="none" xmlns="http://www.w3.org/2000/svg">
<path d="M0 8.02396V11.9287C1.65275 11.9277 3.28951 12.1899 4.81662 12.7002C6.34372 13.2105 7.73121 13.9589 8.89969 14.9026C10.0679 15.8459 10.9943 16.9658 11.626 18.1984C12.2577 19.431 12.5823 20.752 12.5812 22.0859H17.4144C17.41 18.358 15.574 14.7838 12.3092 12.1475C9.04442 9.5112 4.61755 8.02822 0 8.02396Z" fill="white"/>
<path d="M24.1704 0.994385H16.511C20.3858 2.97678 23.6689 5.62703 26.125 8.75495V2.57125C26.1246 2.15294 25.9185 1.75186 25.552 1.45617C25.1855 1.16048 24.6886 0.994385 24.1704 0.994385Z" fill="white"/>
<path d="M4.8125 0.994385H0V4.51001C5.77208 4.51485 11.306 6.36813 15.3876 9.66319C19.4691 12.9582 21.7649 17.4259 21.7711 22.0859H26.125V18.2006C25.1406 13.9304 22.5775 10.001 18.7732 6.9297C14.9689 3.85838 10.1018 1.78913 4.8125 0.994385Z" fill="white"/>
<path d="M37.173 14.1339V25.9999H43.463V24.1129H39.553V14.1339H37.173Z" fill="white"/>
<path d="M56.5527 20.0329C56.5527 16.4799 53.8667 13.9639 50.4837 13.9639C47.1347 13.9639 44.3977 16.4799 44.3977 20.0329C44.3977 23.6029 47.1347 26.1189 50.4837 26.1189C53.8497 26.1189 56.5527 23.6029 56.5527 20.0329ZM46.8457 20.0329C46.8457 17.6189 48.3247 16.1059 50.4837 16.1059C52.6257 16.1059 54.1047 17.6189 54.1047 20.0329C54.1047 22.4469 52.6257 23.9939 50.4837 23.9939C48.3247 23.9939 46.8457 22.4469 46.8457 20.0329Z" fill="white"/>
<path d="M63.7974 13.9809C60.3634 13.9809 57.7454 16.4969 57.7454 20.0499C57.7454 23.6029 60.3634 26.1019 63.8144 26.1019C66.9764 26.1019 69.1354 23.8919 69.6114 21.4779V19.4039H63.1854V21.2229H67.2654C66.9084 22.9059 65.7354 23.9599 63.8994 23.9599C61.6894 23.9599 60.1934 22.4639 60.1934 20.0499C60.1934 17.6869 61.6724 16.1739 63.7974 16.1739C65.0554 16.1739 66.0414 16.7009 66.5854 17.7039H69.3224C68.5574 15.3239 66.4494 13.9809 63.7974 13.9809Z" fill="white"/>
<path d="M82.9492 20.0329C82.9492 16.4799 80.2632 13.9639 76.8802 13.9639C73.5312 13.9639 70.7942 16.4799 70.7942 20.0329C70.7942 23.6029 73.5312 26.1189 76.8802 26.1189C80.2462 26.1189 82.9492 23.6029 82.9492 20.0329ZM73.2422 20.0329C73.2422 17.6189 74.7212 16.1059 76.8802 16.1059C79.0222 16.1059 80.5012 17.6189 80.5012 20.0329C80.5012 22.4469 79.0222 23.9939 76.8802 23.9939C74.7212 23.9939 73.2422 22.4469 73.2422 20.0329Z" fill="white"/>
</svg>
