<svg width="191" height="35" viewBox="0 0 191 35" fill="none" xmlns="http://www.w3.org/2000/svg">
<path d="M20.119 13.1567L17.4476 17.8121L8.33873 0H0L17.5685 34.5307L28.1748 13.2783L20.119 13.1567Z" fill="white"/>
<path d="M52.2763 13.4802C49.6316 2.73847 37.4052 0 37.4052 0H16.5166L19.6746 6.67932L35.8673 6.51732C44.5306 6.1933 45.7445 16.0711 45.7445 16.0711C46.5539 26.1104 36.7577 27.9729 36.7577 27.9729L28.1754 28.2969L24.8559 34.5313H37.1621C55.8654 30.2404 52.2763 13.4802 52.2763 13.4802Z" fill="white"/>
<path d="M57.7639 8.80849H60.2355L65.5951 20.9113L70.9951 8.80849H73.4935L65.5683 26.4724L57.7639 8.80849ZM75.1592 11.1726C75.1592 10.6891 75.3383 10.2726 75.6965 9.92339C76.0547 9.56519 76.48 9.38609 76.9726 9.38609C77.4561 9.38609 77.8726 9.56519 78.2218 9.92339C78.58 10.2726 78.7591 10.6891 78.7591 11.1726C78.7591 11.6652 78.58 12.086 78.2218 12.4353C77.8726 12.7845 77.4561 12.9592 76.9726 12.9592C76.48 12.9592 76.0547 12.7845 75.6965 12.4353C75.3383 12.086 75.1592 11.6652 75.1592 11.1726ZM75.8174 14.8129H78.1278V25.8948H75.8174V14.8129ZM84.2262 14.8129V17.0964C84.7456 16.183 85.2515 15.5248 85.7441 15.1218C86.2456 14.7099 86.8948 14.5039 87.6918 14.5039C87.9157 14.5039 88.2381 14.5576 88.6589 14.6651L87.947 17.0024C87.4993 16.9128 87.2037 16.8681 87.0605 16.8681C86.2724 16.8681 85.6097 17.1457 85.0724 17.7009C84.5441 18.2471 84.2799 18.9322 84.2799 19.7561V25.8948H81.9426V14.8129H84.2262ZM92.1111 11.589H94.4484V14.8129H96.7588V16.9487H94.4484V25.8948H92.1111V16.9487H90.2709V14.786H92.1111V11.589ZM98.4245 14.8129H100.762V21.059C100.762 22.9844 101.608 23.947 103.3 23.947C104.053 23.947 104.648 23.6918 105.087 23.1814C105.526 22.662 105.745 21.9545 105.745 21.059V14.8129H108.056V21.4351C108.056 22.8232 107.603 23.965 106.699 24.8605C105.794 25.756 104.639 26.2037 103.233 26.2037C101.801 26.2037 100.641 25.756 99.7543 24.8605C98.8677 23.965 98.4245 22.7963 98.4245 21.3546V14.8129ZM110.272 20.3068C110.272 18.7934 110.868 17.4501 112.059 16.277C113.259 15.095 114.633 14.5039 116.182 14.5039C117.776 14.5039 119.169 15.086 120.36 16.2502C121.551 17.4054 122.146 18.7576 122.146 20.3068C122.146 21.865 121.56 23.2396 120.387 24.4306C119.223 25.6127 117.875 26.2037 116.344 26.2037C114.705 26.2037 113.281 25.6172 112.072 24.4441C110.872 23.2709 110.272 21.8919 110.272 20.3068ZM119.89 20.3068C119.89 19.3665 119.532 18.5516 118.815 17.8621C118.099 17.1636 117.248 16.8143 116.263 16.8143C115.251 16.8143 114.378 17.1681 113.644 17.8755C112.918 18.574 112.556 19.4113 112.556 20.3874C112.556 21.3187 112.923 22.1336 113.657 22.8321C114.4 23.5306 115.269 23.8799 116.263 23.8799C117.23 23.8799 118.076 23.5217 118.802 22.8053C119.527 22.0889 119.89 21.256 119.89 20.3068ZM132.503 8.78162H136.654C139.94 8.78162 142.385 9.65026 143.988 11.3875C145.591 13.1248 146.392 15.1084 146.392 17.3382C146.392 19.5859 145.564 21.574 143.907 23.3023C142.251 25.0306 139.842 25.8948 136.681 25.8948H132.503V8.78162ZM134.84 11.0652V23.5844H134.975C136.712 23.5844 138.019 23.5082 138.897 23.356C139.775 23.1948 140.607 22.85 141.395 22.3217C142.183 21.7933 142.81 21.0949 143.276 20.2262C143.742 19.3486 143.974 18.3859 143.974 17.3382C143.974 16.0218 143.603 14.8308 142.86 13.7651C142.116 12.6995 141.225 11.9831 140.186 11.6159C139.157 11.2487 137.769 11.0652 136.022 11.0652H134.84ZM159.946 20.8038H150.489C150.695 21.9411 151.161 22.7739 151.886 23.3023C152.621 23.8217 153.418 24.0814 154.277 24.0814C155.603 24.0814 156.713 23.5306 157.609 22.4292L159.315 23.7187C158.034 25.3754 156.319 26.2037 154.17 26.2037C152.522 26.2037 151.143 25.6396 150.033 24.5112C148.922 23.3829 148.367 21.9814 148.367 20.3068C148.367 18.7397 148.927 17.383 150.046 16.2367C151.174 15.0815 152.549 14.5039 154.17 14.5039C155.764 14.5039 157.129 15.0905 158.267 16.2636C159.404 17.4277 159.964 18.9412 159.946 20.8038ZM150.731 18.9367H157.501C156.749 17.4143 155.638 16.6531 154.17 16.6531C152.567 16.6531 151.421 17.4143 150.731 18.9367ZM169.322 16.1293L167.764 17.4994C167.361 17.2128 167.011 16.9979 166.716 16.8546C166.42 16.7024 166.071 16.6263 165.668 16.6263C164.719 16.6263 164.244 16.9755 164.244 17.674C164.244 18.1755 164.844 18.6635 166.044 19.1382C167.253 19.6038 168.122 20.1187 168.65 20.6829C169.179 21.2471 169.443 21.9277 169.443 22.7247C169.443 23.656 169.062 24.4709 168.301 25.1694C167.54 25.859 166.644 26.2037 165.614 26.2037C164.047 26.2037 162.762 25.4784 161.759 24.0276L163.6 23.1411C164.244 23.7679 164.916 24.0814 165.614 24.0814C166.098 24.0814 166.519 23.9515 166.877 23.6918C167.244 23.4232 167.428 23.1142 167.428 22.765C167.428 22.1471 166.792 21.5919 165.52 21.0993C164.249 20.6068 163.367 20.1098 162.874 19.6083C162.391 19.0979 162.149 18.471 162.149 17.7277C162.149 16.8054 162.494 16.0397 163.183 15.4308C163.882 14.8129 164.755 14.5039 165.802 14.5039C166.85 14.5039 168.023 15.0457 169.322 16.1293ZM171.659 8.45924H173.983V19.6755L178.577 14.8129H181.599L176.804 19.9307L181.653 25.8948H178.765L173.983 20.0382V25.8948H171.659V8.45924Z" fill="white"/>
</svg>
